<?xml version="1.0" encoding="UTF-8"?>
<svg width="17px" height="17px" viewBox="0 0 17 17" version="1.1" xmlns="http://www.w3.org/2000/svg" xmlns:xlink="http://www.w3.org/1999/xlink">
    <!-- Generator: Sketch 61.2 (89653) - https://sketch.com -->
    <title>Slice 1</title>
    <desc>Created with Sketch.</desc>
    <defs>
        <radialGradient cx="52.7740802%" cy="44.8205163%" fx="52.7740802%" fy="44.8205163%" r="100%" id="radialGradient-1">
            <stop stop-color="#183CC9" offset="0%"></stop>
            <stop stop-color="#F00D0D" offset="100%"></stop>
        </radialGradient>
    </defs>
    <g id="Page-1" stroke="none" stroke-width="1" fill="none" fill-rule="evenodd">
        <g id="Search" fill="url(#radialGradient-1)" fill-rule="nonzero">
            <path d="M11.885,10.471 C13.6996732,7.92108614 13.257382,4.40594447 10.8675894,2.38505579 C8.47779681,0.364167116 4.93802203,0.511940315 2.72498117,2.72498117 C0.511940315,4.93802203 0.364167116,8.47779681 2.38505579,10.8675894 C4.40594447,13.257382 7.92108614,13.6996732 10.471,11.885 L15.293,16.707 C15.6853789,17.0859722 16.3090848,17.0805524 16.6948186,16.6948186 C17.0805524,16.3090848 17.0859722,15.6853789 16.707,15.293 L11.885,10.471 Z M7,11 C4.790861,11 3,9.209139 3,7 C3,4.790861 4.790861,3 7,3 C9.209139,3 11,4.790861 11,7 C11,8.06086596 10.5785726,9.07828161 9.82842712,9.82842712 C9.07828161,10.5785726 8.06086596,11 7,11 Z" id="Shape"></path>
        </g>
    </g>
</svg>